<svg xmlns="http://www.w3.org/2000/svg" viewBox="0 0 64 64" fill="none">
  <defs>
    <linearGradient id="bg" x1="8" y1="8" x2="56" y2="56" gradientUnits="userSpaceOnUse">
      <stop stop-color="#FDE7EC"/>
      <stop offset="1" stop-color="#F7D9E0"/>
    </linearGradient>
    <linearGradient id="heart" x1="20" y1="18" x2="44" y2="46" gradientUnits="userSpaceOnUse">
      <stop stop-color="#D88394"/>
      <stop offset="1" stop-color="#B56576"/>
    </linearGradient>
  </defs>
  <rect x="4" y="4" width="56" height="56" rx="16" fill="url(#bg)"/>
  <path d="M32 47C31.2 47 30.5 46.7 29.8 46.2C25.2 42.6 14 34.6 14 24.8C14 18.8 18.8 14 24.8 14C27.8 14 30.7 15.2 32.8 17.4L33 17.6L33.2 17.4C35.3 15.2 38.2 14 41.2 14C47.2 14 52 18.8 52 24.8C52 34.6 40.8 42.6 36.2 46.2C35.5 46.7 34.8 47 34 47H32Z" fill="url(#heart)"/>
</svg>
